<mxfile host="Electron" agent="Mozilla/5.0 (Windows NT 10.0; Win64; x64) AppleWebKit/537.36 (KHTML, like Gecko) draw.io/24.7.8 Chrome/128.0.6613.36 Electron/32.0.1 Safari/537.36" version="24.7.8">
  <diagram name="第 1 页" id="YM-UwLQOKMukf0GN6M5_">
    <mxGraphModel dx="830" dy="478" grid="1" gridSize="10" guides="1" tooltips="1" connect="1" arrows="1" fold="1" page="1" pageScale="1" pageWidth="827" pageHeight="1169" math="0" shadow="0">
      <root>
        <mxCell id="0" />
        <mxCell id="1" parent="0" />
        <mxCell id="b25O3X5hRNk7nSdFZel3-1" value="" style="ellipse;whiteSpace=wrap;html=1;aspect=fixed;sketch=1;curveFitting=1;jiggle=2;fillColor=#d80073;fontColor=#ffffff;strokeColor=#A50040;" vertex="1" parent="1">
          <mxGeometry x="240" width="40" height="40" as="geometry" />
        </mxCell>
        <mxCell id="b25O3X5hRNk7nSdFZel3-2" value="" style="ellipse;whiteSpace=wrap;html=1;aspect=fixed;sketch=1;curveFitting=1;jiggle=2;fillColor=#d80073;fontColor=#ffffff;strokeColor=#A50040;" vertex="1" parent="1">
          <mxGeometry x="320" width="40" height="40" as="geometry" />
        </mxCell>
        <mxCell id="b25O3X5hRNk7nSdFZel3-3" value="" style="ellipse;whiteSpace=wrap;html=1;aspect=fixed;sketch=1;curveFitting=1;jiggle=2;fillColor=#d80073;fontColor=#ffffff;strokeColor=#A50040;" vertex="1" parent="1">
          <mxGeometry x="400" width="40" height="40" as="geometry" />
        </mxCell>
        <mxCell id="b25O3X5hRNk7nSdFZel3-4" value="" style="ellipse;whiteSpace=wrap;html=1;aspect=fixed;sketch=1;curveFitting=1;jiggle=2;fillColor=#d80073;fontColor=#ffffff;strokeColor=#A50040;" vertex="1" parent="1">
          <mxGeometry x="480" width="40" height="40" as="geometry" />
        </mxCell>
        <mxCell id="b25O3X5hRNk7nSdFZel3-5" value="" style="ellipse;whiteSpace=wrap;html=1;aspect=fixed;sketch=1;curveFitting=1;jiggle=2;fillColor=#60a917;fontColor=#ffffff;strokeColor=#2D7600;" vertex="1" parent="1">
          <mxGeometry x="160" y="80" width="40" height="40" as="geometry" />
        </mxCell>
        <mxCell id="b25O3X5hRNk7nSdFZel3-6" value="" style="ellipse;whiteSpace=wrap;html=1;aspect=fixed;sketch=1;curveFitting=1;jiggle=2;fillColor=#60a917;fontColor=#ffffff;strokeColor=#2D7600;" vertex="1" parent="1">
          <mxGeometry x="240" y="80" width="40" height="40" as="geometry" />
        </mxCell>
        <mxCell id="b25O3X5hRNk7nSdFZel3-7" value="" style="ellipse;whiteSpace=wrap;html=1;aspect=fixed;sketch=1;curveFitting=1;jiggle=2;fillColor=#60a917;fontColor=#ffffff;strokeColor=#2D7600;" vertex="1" parent="1">
          <mxGeometry x="320" y="80" width="40" height="40" as="geometry" />
        </mxCell>
        <mxCell id="b25O3X5hRNk7nSdFZel3-8" value="" style="ellipse;whiteSpace=wrap;html=1;aspect=fixed;sketch=1;curveFitting=1;jiggle=2;fillColor=#60a917;fontColor=#ffffff;strokeColor=#2D7600;" vertex="1" parent="1">
          <mxGeometry x="400" y="80" width="40" height="40" as="geometry" />
        </mxCell>
        <mxCell id="b25O3X5hRNk7nSdFZel3-9" value="" style="ellipse;whiteSpace=wrap;html=1;aspect=fixed;sketch=1;curveFitting=1;jiggle=2;fillColor=#60a917;fontColor=#ffffff;strokeColor=#2D7600;" vertex="1" parent="1">
          <mxGeometry x="480" y="80" width="40" height="40" as="geometry" />
        </mxCell>
        <mxCell id="b25O3X5hRNk7nSdFZel3-10" value="" style="ellipse;whiteSpace=wrap;html=1;aspect=fixed;sketch=1;curveFitting=1;jiggle=2;fillColor=#60a917;fontColor=#ffffff;strokeColor=#2D7600;" vertex="1" parent="1">
          <mxGeometry x="560" y="80" width="40" height="40" as="geometry" />
        </mxCell>
        <mxCell id="b25O3X5hRNk7nSdFZel3-11" value="" style="ellipse;whiteSpace=wrap;html=1;aspect=fixed;sketch=1;curveFitting=1;jiggle=2;fillColor=#1ba1e2;fontColor=#ffffff;strokeColor=#006EAF;" vertex="1" parent="1">
          <mxGeometry x="200" y="160" width="40" height="40" as="geometry" />
        </mxCell>
        <mxCell id="b25O3X5hRNk7nSdFZel3-12" value="" style="ellipse;whiteSpace=wrap;html=1;aspect=fixed;sketch=1;curveFitting=1;jiggle=2;fillColor=#1ba1e2;fontColor=#ffffff;strokeColor=#006EAF;" vertex="1" parent="1">
          <mxGeometry x="280" y="160" width="40" height="40" as="geometry" />
        </mxCell>
        <mxCell id="b25O3X5hRNk7nSdFZel3-13" value="" style="ellipse;whiteSpace=wrap;html=1;aspect=fixed;sketch=1;curveFitting=1;jiggle=2;fillColor=#1ba1e2;fontColor=#ffffff;strokeColor=#006EAF;" vertex="1" parent="1">
          <mxGeometry x="400" y="160" width="40" height="40" as="geometry" />
        </mxCell>
        <mxCell id="b25O3X5hRNk7nSdFZel3-14" value="" style="ellipse;whiteSpace=wrap;html=1;aspect=fixed;sketch=1;curveFitting=1;jiggle=2;fillColor=#1ba1e2;fontColor=#ffffff;strokeColor=#006EAF;" vertex="1" parent="1">
          <mxGeometry x="520" y="160" width="40" height="40" as="geometry" />
        </mxCell>
        <mxCell id="b25O3X5hRNk7nSdFZel3-15" value="" style="ellipse;whiteSpace=wrap;html=1;aspect=fixed;sketch=1;curveFitting=1;jiggle=2;fillColor=#6a00ff;fontColor=#ffffff;strokeColor=#3700CC;" vertex="1" parent="1">
          <mxGeometry x="160" y="240" width="40" height="40" as="geometry" />
        </mxCell>
        <mxCell id="b25O3X5hRNk7nSdFZel3-16" value="" style="ellipse;whiteSpace=wrap;html=1;aspect=fixed;sketch=1;curveFitting=1;jiggle=2;fillColor=#6a00ff;fontColor=#ffffff;strokeColor=#3700CC;" vertex="1" parent="1">
          <mxGeometry x="280" y="240" width="40" height="40" as="geometry" />
        </mxCell>
        <mxCell id="b25O3X5hRNk7nSdFZel3-17" value="" style="ellipse;whiteSpace=wrap;html=1;aspect=fixed;sketch=1;curveFitting=1;jiggle=2;fillColor=#6a00ff;fontColor=#ffffff;strokeColor=#3700CC;" vertex="1" parent="1">
          <mxGeometry x="400" y="240" width="40" height="40" as="geometry" />
        </mxCell>
        <mxCell id="b25O3X5hRNk7nSdFZel3-18" value="" style="ellipse;whiteSpace=wrap;html=1;aspect=fixed;sketch=1;curveFitting=1;jiggle=2;fillColor=#6a00ff;fontColor=#ffffff;strokeColor=#3700CC;" vertex="1" parent="1">
          <mxGeometry x="560" y="240" width="40" height="40" as="geometry" />
        </mxCell>
        <mxCell id="b25O3X5hRNk7nSdFZel3-19" value="u" style="text;html=1;align=center;verticalAlign=middle;resizable=0;points=[];autosize=1;strokeColor=none;fillColor=none;" vertex="1" parent="1">
          <mxGeometry x="85" y="8" width="30" height="30" as="geometry" />
        </mxCell>
        <mxCell id="b25O3X5hRNk7nSdFZel3-20" value="v" style="text;html=1;align=center;verticalAlign=middle;resizable=0;points=[];autosize=1;strokeColor=none;fillColor=none;" vertex="1" parent="1">
          <mxGeometry x="85" y="85" width="30" height="30" as="geometry" />
        </mxCell>
        <mxCell id="b25O3X5hRNk7nSdFZel3-21" value="u" style="text;html=1;align=center;verticalAlign=middle;resizable=0;points=[];autosize=1;strokeColor=none;fillColor=none;" vertex="1" parent="1">
          <mxGeometry x="85" y="165" width="30" height="30" as="geometry" />
        </mxCell>
        <mxCell id="b25O3X5hRNk7nSdFZel3-22" value="v" style="text;html=1;align=center;verticalAlign=middle;resizable=0;points=[];autosize=1;strokeColor=none;fillColor=none;" vertex="1" parent="1">
          <mxGeometry x="85" y="245" width="30" height="30" as="geometry" />
        </mxCell>
        <mxCell id="b25O3X5hRNk7nSdFZel3-23" value="" style="ellipse;whiteSpace=wrap;html=1;aspect=fixed;sketch=1;curveFitting=1;jiggle=2;fillColor=#fa6800;fontColor=#000000;strokeColor=#C73500;" vertex="1" parent="1">
          <mxGeometry x="160" y="320" width="40" height="40" as="geometry" />
        </mxCell>
        <mxCell id="b25O3X5hRNk7nSdFZel3-24" value="" style="ellipse;whiteSpace=wrap;html=1;aspect=fixed;sketch=1;curveFitting=1;jiggle=2;fillColor=#fa6800;fontColor=#000000;strokeColor=#C73500;" vertex="1" parent="1">
          <mxGeometry x="320" y="320" width="40" height="40" as="geometry" />
        </mxCell>
        <mxCell id="b25O3X5hRNk7nSdFZel3-25" value="" style="ellipse;whiteSpace=wrap;html=1;aspect=fixed;sketch=1;curveFitting=1;jiggle=2;fillColor=#fa6800;fontColor=#000000;strokeColor=#C73500;" vertex="1" parent="1">
          <mxGeometry x="400" y="320" width="40" height="40" as="geometry" />
        </mxCell>
        <mxCell id="b25O3X5hRNk7nSdFZel3-26" value="" style="ellipse;whiteSpace=wrap;html=1;aspect=fixed;sketch=1;curveFitting=1;jiggle=2;fillColor=#fa6800;fontColor=#000000;strokeColor=#C73500;" vertex="1" parent="1">
          <mxGeometry x="560" y="320" width="40" height="40" as="geometry" />
        </mxCell>
        <mxCell id="b25O3X5hRNk7nSdFZel3-27" value="" style="ellipse;whiteSpace=wrap;html=1;aspect=fixed;sketch=1;curveFitting=1;jiggle=2;fillColor=#fa6800;fontColor=#000000;strokeColor=#C73500;" vertex="1" parent="1">
          <mxGeometry x="240" y="320" width="40" height="40" as="geometry" />
        </mxCell>
        <mxCell id="b25O3X5hRNk7nSdFZel3-28" value="" style="ellipse;whiteSpace=wrap;html=1;aspect=fixed;sketch=1;curveFitting=1;jiggle=2;fillColor=#fa6800;fontColor=#000000;strokeColor=#C73500;" vertex="1" parent="1">
          <mxGeometry x="480" y="320" width="40" height="40" as="geometry" />
        </mxCell>
        <mxCell id="b25O3X5hRNk7nSdFZel3-29" value="u" style="text;html=1;align=center;verticalAlign=middle;resizable=0;points=[];autosize=1;strokeColor=none;fillColor=none;" vertex="1" parent="1">
          <mxGeometry x="85" y="325" width="30" height="30" as="geometry" />
        </mxCell>
        <mxCell id="b25O3X5hRNk7nSdFZel3-31" value="" style="endArrow=classic;html=1;rounded=0;exitX=0;exitY=1;exitDx=0;exitDy=0;entryX=1;entryY=0;entryDx=0;entryDy=0;sketch=1;curveFitting=1;jiggle=2;" edge="1" parent="1" source="b25O3X5hRNk7nSdFZel3-1" target="b25O3X5hRNk7nSdFZel3-5">
          <mxGeometry width="50" height="50" relative="1" as="geometry">
            <mxPoint x="340" y="210" as="sourcePoint" />
            <mxPoint x="390" y="160" as="targetPoint" />
          </mxGeometry>
        </mxCell>
        <mxCell id="b25O3X5hRNk7nSdFZel3-32" value="" style="endArrow=classic;html=1;rounded=0;exitX=0.5;exitY=1;exitDx=0;exitDy=0;sketch=1;curveFitting=1;jiggle=2;" edge="1" parent="1" source="b25O3X5hRNk7nSdFZel3-1" target="b25O3X5hRNk7nSdFZel3-6">
          <mxGeometry width="50" height="50" relative="1" as="geometry">
            <mxPoint x="256" y="44" as="sourcePoint" />
            <mxPoint x="204" y="96" as="targetPoint" />
          </mxGeometry>
        </mxCell>
        <mxCell id="b25O3X5hRNk7nSdFZel3-33" value="" style="endArrow=classic;html=1;rounded=0;exitX=0.25;exitY=0.97;exitDx=0;exitDy=0;entryX=1;entryY=0;entryDx=0;entryDy=0;sketch=1;curveFitting=1;jiggle=2;exitPerimeter=0;" edge="1" parent="1" source="b25O3X5hRNk7nSdFZel3-2" target="b25O3X5hRNk7nSdFZel3-6">
          <mxGeometry width="50" height="50" relative="1" as="geometry">
            <mxPoint x="266" y="54" as="sourcePoint" />
            <mxPoint x="214" y="106" as="targetPoint" />
          </mxGeometry>
        </mxCell>
        <mxCell id="b25O3X5hRNk7nSdFZel3-34" value="" style="endArrow=classic;html=1;rounded=0;exitX=0.5;exitY=1;exitDx=0;exitDy=0;entryX=0.5;entryY=0;entryDx=0;entryDy=0;sketch=1;curveFitting=1;jiggle=2;" edge="1" parent="1" source="b25O3X5hRNk7nSdFZel3-2" target="b25O3X5hRNk7nSdFZel3-7">
          <mxGeometry width="50" height="50" relative="1" as="geometry">
            <mxPoint x="276" y="64" as="sourcePoint" />
            <mxPoint x="224" y="116" as="targetPoint" />
          </mxGeometry>
        </mxCell>
        <mxCell id="b25O3X5hRNk7nSdFZel3-35" value="" style="endArrow=classic;html=1;rounded=0;exitX=1;exitY=1;exitDx=0;exitDy=0;entryX=0.25;entryY=0.15;entryDx=0;entryDy=0;sketch=1;curveFitting=1;jiggle=2;entryPerimeter=0;" edge="1" parent="1" source="b25O3X5hRNk7nSdFZel3-2" target="b25O3X5hRNk7nSdFZel3-8">
          <mxGeometry width="50" height="50" relative="1" as="geometry">
            <mxPoint x="286" y="74" as="sourcePoint" />
            <mxPoint x="234" y="126" as="targetPoint" />
          </mxGeometry>
        </mxCell>
        <mxCell id="b25O3X5hRNk7nSdFZel3-36" value="" style="endArrow=classic;html=1;rounded=0;exitX=0.59;exitY=1;exitDx=0;exitDy=0;sketch=1;curveFitting=1;jiggle=2;exitPerimeter=0;" edge="1" parent="1" source="b25O3X5hRNk7nSdFZel3-3" target="b25O3X5hRNk7nSdFZel3-8">
          <mxGeometry width="50" height="50" relative="1" as="geometry">
            <mxPoint x="296" y="84" as="sourcePoint" />
            <mxPoint x="244" y="136" as="targetPoint" />
          </mxGeometry>
        </mxCell>
        <mxCell id="b25O3X5hRNk7nSdFZel3-37" value="" style="endArrow=classic;html=1;rounded=0;sketch=1;curveFitting=1;jiggle=2;" edge="1" parent="1" source="b25O3X5hRNk7nSdFZel3-4" target="b25O3X5hRNk7nSdFZel3-10">
          <mxGeometry width="50" height="50" relative="1" as="geometry">
            <mxPoint x="306" y="94" as="sourcePoint" />
            <mxPoint x="254" y="146" as="targetPoint" />
          </mxGeometry>
        </mxCell>
        <mxCell id="b25O3X5hRNk7nSdFZel3-38" value="" style="endArrow=classic;html=1;rounded=0;sketch=1;curveFitting=1;jiggle=2;exitX=0.57;exitY=1.02;exitDx=0;exitDy=0;exitPerimeter=0;entryX=0.5;entryY=0;entryDx=0;entryDy=0;" edge="1" parent="1" source="b25O3X5hRNk7nSdFZel3-4" target="b25O3X5hRNk7nSdFZel3-9">
          <mxGeometry width="50" height="50" relative="1" as="geometry">
            <mxPoint x="524" y="44" as="sourcePoint" />
            <mxPoint x="576" y="96" as="targetPoint" />
          </mxGeometry>
        </mxCell>
        <mxCell id="b25O3X5hRNk7nSdFZel3-39" value="" style="endArrow=classic;html=1;rounded=0;sketch=1;curveFitting=1;jiggle=2;exitX=1;exitY=1;exitDx=0;exitDy=0;" edge="1" parent="1" source="b25O3X5hRNk7nSdFZel3-3" target="b25O3X5hRNk7nSdFZel3-9">
          <mxGeometry width="50" height="50" relative="1" as="geometry">
            <mxPoint x="513" y="51" as="sourcePoint" />
            <mxPoint x="510" y="90" as="targetPoint" />
          </mxGeometry>
        </mxCell>
        <mxCell id="b25O3X5hRNk7nSdFZel3-40" value="0" style="text;html=1;align=center;verticalAlign=middle;resizable=0;points=[];autosize=1;strokeColor=none;fillColor=none;" vertex="1" parent="1">
          <mxGeometry x="640" y="5" width="30" height="30" as="geometry" />
        </mxCell>
        <mxCell id="b25O3X5hRNk7nSdFZel3-41" value="1" style="text;html=1;align=center;verticalAlign=middle;resizable=0;points=[];autosize=1;strokeColor=none;fillColor=none;" vertex="1" parent="1">
          <mxGeometry x="640" y="165" width="30" height="30" as="geometry" />
        </mxCell>
        <mxCell id="b25O3X5hRNk7nSdFZel3-42" value="2" style="text;html=1;align=center;verticalAlign=middle;resizable=0;points=[];autosize=1;strokeColor=none;fillColor=none;" vertex="1" parent="1">
          <mxGeometry x="640" y="325" width="30" height="30" as="geometry" />
        </mxCell>
        <mxCell id="b25O3X5hRNk7nSdFZel3-43" value="" style="endArrow=classic;html=1;rounded=0;exitX=0.69;exitY=0.97;exitDx=0;exitDy=0;exitPerimeter=0;entryX=0.38;entryY=0;entryDx=0;entryDy=0;entryPerimeter=0;sketch=1;curveFitting=1;jiggle=2;strokeColor=#CCCC00;" edge="1" parent="1" source="b25O3X5hRNk7nSdFZel3-5" target="b25O3X5hRNk7nSdFZel3-11">
          <mxGeometry width="50" height="50" relative="1" as="geometry">
            <mxPoint x="340" y="210" as="sourcePoint" />
            <mxPoint x="390" y="160" as="targetPoint" />
          </mxGeometry>
        </mxCell>
        <mxCell id="b25O3X5hRNk7nSdFZel3-44" value="" style="endArrow=classic;html=1;rounded=0;exitX=0.5;exitY=1;exitDx=0;exitDy=0;entryX=1;entryY=0;entryDx=0;entryDy=0;sketch=1;curveFitting=1;jiggle=2;strokeColor=#CCCC00;" edge="1" parent="1" source="b25O3X5hRNk7nSdFZel3-6" target="b25O3X5hRNk7nSdFZel3-11">
          <mxGeometry width="50" height="50" relative="1" as="geometry">
            <mxPoint x="198" y="129" as="sourcePoint" />
            <mxPoint x="225" y="170" as="targetPoint" />
          </mxGeometry>
        </mxCell>
        <mxCell id="b25O3X5hRNk7nSdFZel3-45" value="" style="endArrow=classic;html=1;rounded=0;exitX=0.73;exitY=0.97;exitDx=0;exitDy=0;exitPerimeter=0;sketch=1;curveFitting=1;jiggle=2;strokeColor=#CCCC00;" edge="1" parent="1" source="b25O3X5hRNk7nSdFZel3-6" target="b25O3X5hRNk7nSdFZel3-12">
          <mxGeometry width="50" height="50" relative="1" as="geometry">
            <mxPoint x="208" y="139" as="sourcePoint" />
            <mxPoint x="235" y="180" as="targetPoint" />
          </mxGeometry>
        </mxCell>
        <mxCell id="b25O3X5hRNk7nSdFZel3-46" value="" style="endArrow=classic;html=1;rounded=0;exitX=0.4;exitY=1.06;exitDx=0;exitDy=0;exitPerimeter=0;entryX=0.96;entryY=0.33;entryDx=0;entryDy=0;entryPerimeter=0;sketch=1;curveFitting=1;jiggle=2;strokeColor=#CCCC00;" edge="1" parent="1" source="b25O3X5hRNk7nSdFZel3-7" target="b25O3X5hRNk7nSdFZel3-12">
          <mxGeometry width="50" height="50" relative="1" as="geometry">
            <mxPoint x="218" y="149" as="sourcePoint" />
            <mxPoint x="245" y="190" as="targetPoint" />
          </mxGeometry>
        </mxCell>
        <mxCell id="b25O3X5hRNk7nSdFZel3-47" value="" style="endArrow=classic;html=1;rounded=0;exitX=0.25;exitY=1;exitDx=0;exitDy=0;exitPerimeter=0;entryX=0.98;entryY=0.44;entryDx=0;entryDy=0;entryPerimeter=0;sketch=1;curveFitting=1;jiggle=2;strokeColor=#CCCC00;" edge="1" parent="1" source="b25O3X5hRNk7nSdFZel3-8" target="b25O3X5hRNk7nSdFZel3-12">
          <mxGeometry width="50" height="50" relative="1" as="geometry">
            <mxPoint x="228" y="159" as="sourcePoint" />
            <mxPoint x="255" y="200" as="targetPoint" />
          </mxGeometry>
        </mxCell>
        <mxCell id="b25O3X5hRNk7nSdFZel3-48" value="" style="endArrow=classic;html=1;rounded=0;exitX=0.5;exitY=1;exitDx=0;exitDy=0;sketch=1;curveFitting=1;jiggle=2;strokeColor=#CCCC00;" edge="1" parent="1" source="b25O3X5hRNk7nSdFZel3-8" target="b25O3X5hRNk7nSdFZel3-13">
          <mxGeometry width="50" height="50" relative="1" as="geometry">
            <mxPoint x="238" y="169" as="sourcePoint" />
            <mxPoint x="265" y="210" as="targetPoint" />
          </mxGeometry>
        </mxCell>
        <mxCell id="b25O3X5hRNk7nSdFZel3-49" value="" style="endArrow=classic;html=1;rounded=0;exitX=0.25;exitY=1;exitDx=0;exitDy=0;exitPerimeter=0;entryX=0.06;entryY=0.23;entryDx=0;entryDy=0;entryPerimeter=0;sketch=1;curveFitting=1;jiggle=2;strokeColor=#CCCC00;" edge="1" parent="1" source="b25O3X5hRNk7nSdFZel3-9" target="b25O3X5hRNk7nSdFZel3-14">
          <mxGeometry width="50" height="50" relative="1" as="geometry">
            <mxPoint x="248" y="179" as="sourcePoint" />
            <mxPoint x="275" y="220" as="targetPoint" />
          </mxGeometry>
        </mxCell>
        <mxCell id="b25O3X5hRNk7nSdFZel3-50" value="" style="endArrow=classic;html=1;rounded=0;exitX=0.1;exitY=0.92;exitDx=0;exitDy=0;exitPerimeter=0;sketch=1;curveFitting=1;jiggle=2;strokeColor=#CCCC00;" edge="1" parent="1" source="b25O3X5hRNk7nSdFZel3-9" target="b25O3X5hRNk7nSdFZel3-13">
          <mxGeometry width="50" height="50" relative="1" as="geometry">
            <mxPoint x="258" y="189" as="sourcePoint" />
            <mxPoint x="285" y="230" as="targetPoint" />
          </mxGeometry>
        </mxCell>
        <mxCell id="b25O3X5hRNk7nSdFZel3-51" value="" style="endArrow=classic;html=1;rounded=0;exitX=0.19;exitY=0.98;exitDx=0;exitDy=0;exitPerimeter=0;entryX=0.92;entryY=0.41;entryDx=0;entryDy=0;entryPerimeter=0;sketch=1;curveFitting=1;jiggle=2;strokeColor=#CCCC00;" edge="1" parent="1" source="b25O3X5hRNk7nSdFZel3-10" target="b25O3X5hRNk7nSdFZel3-14">
          <mxGeometry width="50" height="50" relative="1" as="geometry">
            <mxPoint x="268" y="199" as="sourcePoint" />
            <mxPoint x="295" y="240" as="targetPoint" />
          </mxGeometry>
        </mxCell>
        <mxCell id="b25O3X5hRNk7nSdFZel3-52" value="" style="endArrow=classic;html=1;rounded=0;exitX=0.29;exitY=0.98;exitDx=0;exitDy=0;entryX=0.64;entryY=0.08;entryDx=0;entryDy=0;sketch=1;curveFitting=1;jiggle=2;exitPerimeter=0;entryPerimeter=0;" edge="1" parent="1" source="b25O3X5hRNk7nSdFZel3-11" target="b25O3X5hRNk7nSdFZel3-15">
          <mxGeometry width="50" height="50" relative="1" as="geometry">
            <mxPoint x="256" y="44" as="sourcePoint" />
            <mxPoint x="204" y="96" as="targetPoint" />
          </mxGeometry>
        </mxCell>
        <mxCell id="b25O3X5hRNk7nSdFZel3-53" value="" style="endArrow=classic;html=1;rounded=0;exitX=0.58;exitY=1.03;exitDx=0;exitDy=0;entryX=0.5;entryY=0;entryDx=0;entryDy=0;sketch=1;curveFitting=1;jiggle=2;exitPerimeter=0;" edge="1" parent="1" source="b25O3X5hRNk7nSdFZel3-12" target="b25O3X5hRNk7nSdFZel3-16">
          <mxGeometry width="50" height="50" relative="1" as="geometry">
            <mxPoint x="266" y="54" as="sourcePoint" />
            <mxPoint x="214" y="106" as="targetPoint" />
          </mxGeometry>
        </mxCell>
        <mxCell id="b25O3X5hRNk7nSdFZel3-54" value="" style="endArrow=classic;html=1;rounded=0;exitX=0;exitY=0.75;exitDx=0;exitDy=0;entryX=0.75;entryY=0;entryDx=0;entryDy=0;sketch=1;curveFitting=1;jiggle=2;exitPerimeter=0;entryPerimeter=0;" edge="1" parent="1" source="b25O3X5hRNk7nSdFZel3-13" target="b25O3X5hRNk7nSdFZel3-16">
          <mxGeometry width="50" height="50" relative="1" as="geometry">
            <mxPoint x="276" y="64" as="sourcePoint" />
            <mxPoint x="224" y="116" as="targetPoint" />
          </mxGeometry>
        </mxCell>
        <mxCell id="b25O3X5hRNk7nSdFZel3-55" value="" style="endArrow=classic;html=1;rounded=0;exitX=0.5;exitY=1;exitDx=0;exitDy=0;entryX=0.5;entryY=0;entryDx=0;entryDy=0;sketch=1;curveFitting=1;jiggle=2;" edge="1" parent="1" source="b25O3X5hRNk7nSdFZel3-13" target="b25O3X5hRNk7nSdFZel3-17">
          <mxGeometry width="50" height="50" relative="1" as="geometry">
            <mxPoint x="286" y="74" as="sourcePoint" />
            <mxPoint x="234" y="126" as="targetPoint" />
          </mxGeometry>
        </mxCell>
        <mxCell id="b25O3X5hRNk7nSdFZel3-56" value="" style="endArrow=classic;html=1;rounded=0;exitX=0.5;exitY=1;exitDx=0;exitDy=0;entryX=0;entryY=0;entryDx=0;entryDy=0;sketch=1;curveFitting=1;jiggle=2;" edge="1" parent="1" source="b25O3X5hRNk7nSdFZel3-14" target="b25O3X5hRNk7nSdFZel3-18">
          <mxGeometry width="50" height="50" relative="1" as="geometry">
            <mxPoint x="296" y="84" as="sourcePoint" />
            <mxPoint x="244" y="136" as="targetPoint" />
          </mxGeometry>
        </mxCell>
        <mxCell id="b25O3X5hRNk7nSdFZel3-57" value="" style="endArrow=classic;html=1;rounded=0;exitX=0.53;exitY=1.07;exitDx=0;exitDy=0;exitPerimeter=0;entryX=0.68;entryY=0.06;entryDx=0;entryDy=0;entryPerimeter=0;sketch=1;curveFitting=1;jiggle=2;strokeColor=#CCCC00;" edge="1" parent="1" source="b25O3X5hRNk7nSdFZel3-15" target="b25O3X5hRNk7nSdFZel3-23">
          <mxGeometry width="50" height="50" relative="1" as="geometry">
            <mxPoint x="198" y="129" as="sourcePoint" />
            <mxPoint x="225" y="170" as="targetPoint" />
          </mxGeometry>
        </mxCell>
        <mxCell id="b25O3X5hRNk7nSdFZel3-58" value="" style="endArrow=classic;html=1;rounded=0;entryX=0.6;entryY=0;entryDx=0;entryDy=0;entryPerimeter=0;sketch=1;curveFitting=1;jiggle=2;strokeColor=#CCCC00;" edge="1" parent="1" source="b25O3X5hRNk7nSdFZel3-16" target="b25O3X5hRNk7nSdFZel3-27">
          <mxGeometry width="50" height="50" relative="1" as="geometry">
            <mxPoint x="191" y="293" as="sourcePoint" />
            <mxPoint x="197" y="332" as="targetPoint" />
          </mxGeometry>
        </mxCell>
        <mxCell id="b25O3X5hRNk7nSdFZel3-59" value="" style="endArrow=classic;html=1;rounded=0;exitX=0.25;exitY=1;exitDx=0;exitDy=0;exitPerimeter=0;entryX=1;entryY=0;entryDx=0;entryDy=0;sketch=1;curveFitting=1;jiggle=2;strokeColor=#CCCC00;" edge="1" parent="1" source="b25O3X5hRNk7nSdFZel3-17" target="b25O3X5hRNk7nSdFZel3-24">
          <mxGeometry width="50" height="50" relative="1" as="geometry">
            <mxPoint x="201" y="303" as="sourcePoint" />
            <mxPoint x="207" y="342" as="targetPoint" />
          </mxGeometry>
        </mxCell>
        <mxCell id="b25O3X5hRNk7nSdFZel3-60" value="" style="endArrow=classic;html=1;rounded=0;exitX=0.72;exitY=1.04;exitDx=0;exitDy=0;exitPerimeter=0;sketch=1;curveFitting=1;jiggle=2;strokeColor=#CCCC00;" edge="1" parent="1" source="b25O3X5hRNk7nSdFZel3-16" target="b25O3X5hRNk7nSdFZel3-24">
          <mxGeometry width="50" height="50" relative="1" as="geometry">
            <mxPoint x="211" y="313" as="sourcePoint" />
            <mxPoint x="217" y="352" as="targetPoint" />
          </mxGeometry>
        </mxCell>
        <mxCell id="b25O3X5hRNk7nSdFZel3-61" value="" style="endArrow=classic;html=1;rounded=0;exitX=0;exitY=0.75;exitDx=0;exitDy=0;exitPerimeter=0;entryX=0.96;entryY=0.2;entryDx=0;entryDy=0;entryPerimeter=0;sketch=1;curveFitting=1;jiggle=2;strokeColor=#CCCC00;" edge="1" parent="1" source="b25O3X5hRNk7nSdFZel3-18" target="b25O3X5hRNk7nSdFZel3-25">
          <mxGeometry width="50" height="50" relative="1" as="geometry">
            <mxPoint x="221" y="323" as="sourcePoint" />
            <mxPoint x="227" y="362" as="targetPoint" />
          </mxGeometry>
        </mxCell>
        <mxCell id="b25O3X5hRNk7nSdFZel3-62" value="" style="endArrow=classic;html=1;rounded=0;exitX=0.75;exitY=1;exitDx=0;exitDy=0;exitPerimeter=0;sketch=1;curveFitting=1;jiggle=2;strokeColor=#CCCC00;" edge="1" parent="1" source="b25O3X5hRNk7nSdFZel3-17" target="b25O3X5hRNk7nSdFZel3-25">
          <mxGeometry width="50" height="50" relative="1" as="geometry">
            <mxPoint x="231" y="333" as="sourcePoint" />
            <mxPoint x="237" y="372" as="targetPoint" />
          </mxGeometry>
        </mxCell>
        <mxCell id="b25O3X5hRNk7nSdFZel3-63" value="" style="endArrow=classic;html=1;rounded=0;sketch=1;curveFitting=1;jiggle=2;strokeColor=#CCCC00;" edge="1" parent="1" target="b25O3X5hRNk7nSdFZel3-28">
          <mxGeometry width="50" height="50" relative="1" as="geometry">
            <mxPoint x="570" y="280" as="sourcePoint" />
            <mxPoint x="448" y="338" as="targetPoint" />
          </mxGeometry>
        </mxCell>
        <mxCell id="b25O3X5hRNk7nSdFZel3-64" value="" style="endArrow=classic;html=1;rounded=0;sketch=1;curveFitting=1;jiggle=2;strokeColor=#CCCC00;exitX=0.76;exitY=0.94;exitDx=0;exitDy=0;exitPerimeter=0;entryX=0.69;entryY=0.02;entryDx=0;entryDy=0;entryPerimeter=0;" edge="1" parent="1" source="b25O3X5hRNk7nSdFZel3-18" target="b25O3X5hRNk7nSdFZel3-26">
          <mxGeometry width="50" height="50" relative="1" as="geometry">
            <mxPoint x="580" y="290" as="sourcePoint" />
            <mxPoint x="525" y="337" as="targetPoint" />
          </mxGeometry>
        </mxCell>
      </root>
    </mxGraphModel>
  </diagram>
</mxfile>
